# xmcd
#
# Track frame offsets:
#	150
#	4960
#	11885
#	12440
#	16782
#	20747
#	65922
#	70305
#	114260
#	120030
#	175017
#	221670
#
# Disc length: 3029 seconds
#
# Revision: 1
# Processed by: cddbd v1.5.1PL0 Copyright (c) Steve Scherf et al.
# Submitted via: CDex 1.50Beta5
#
DISCID=9a0bd30c
DTITLE=三石琴乃 - エクセル・サーガ おしゃべり単行本(1)〜単行本そのまんま
DYEAR=2000
DGENRE=
TTITLE0=三石琴乃/プロローグ
TTITLE1=エクセル・ガールズ/愛
TTITLE2=三石琴乃/表紙
TTITLE3=三石琴乃/表紙折り返し
TTITLE4=三石琴乃/目次
TTITLE5=三石琴乃/「起動する伝説」
TTITLE6=三石琴乃/INTER MISSION #1
TTITLE7=三石琴乃/「別れの為の昨日と今日」
TTITLE8=三石琴乃/INTER MISSION #2
TTITLE9=三石琴乃/「出会いの為の今日と明日」
TTITLE10=三石琴乃/「許された日常」
TTITLE11=三石琴乃/キャストロール
EXTD=
EXTT0=
EXTT1=
EXTT2=
EXTT3=
EXTT4=
EXTT5=
EXTT6=
EXTT7=
EXTT8=
EXTT9=
EXTT10=
EXTT11=
PLAYORDER=
